<?xml version="1.0" encoding="UTF-8"?>
<!DOCTYPE svg PUBLIC "-//W3C//DTD SVG 1.1//EN" "http://www.w3.org/Graphics/SVG/1.1/DTD/svg11.dtd">
<!-- Creator: CorelDRAW X7 -->
<svg xmlns="http://www.w3.org/2000/svg" xml:space="preserve" width="62.8964mm" height="47.7246mm" version="1.1" style="shape-rendering:geometricPrecision; text-rendering:geometricPrecision; image-rendering:optimizeQuality; fill-rule:evenodd; clip-rule:evenodd"
viewBox="0 0 24430 18537"
 xmlns:xlink="http://www.w3.org/1999/xlink">
 <defs>
  <style type="text/css">
   <![CDATA[
    .fil1 {fill:#FEC901}
    .fil2 {fill:white}
    .fil3 {fill:#FEC901;fill-rule:nonzero}
    .fil0 {fill:white;fill-rule:nonzero}
   ]]>
  </style>
 </defs>
 <g id="Camada_x0020_1">
  <metadata id="CorelCorpID_0Corel-Layer"/>
  <g id="_2821344361568">
   <path class="fil0" d="M12278 15699c-3096,0 -5615,-2518 -5615,-5614 0,-3096 2519,-5615 5615,-5615 3095,0 5614,2519 5614,5615 0,3096 -2519,5614 -5614,5614zm12013 -8954l-429 -197c774,-1660 208,-3681 -1383,-4680 -1722,-1081 -4003,-559 -5084,1164 -256,407 -426,851 -508,1310 -1263,-1016 -2866,-1624 -4609,-1624 -4063,0 -7368,3304 -7368,7367 0,2292 1052,4342 2699,5694 -2433,0 -4865,0 -7298,0 -428,627 -401,1030 0,1753l20213 0 11 637c5,288 320,462 567,314l1366 -822 1365 -822c247,-149 240,-509 -12,-648l-1395 -772 -1394 -771c-252,-140 -561,46 -555,334l14 797 -3544 0c1646,-1352 2698,-3402 2698,-5694 0,-1760 -621,-3377 -1654,-4645 -112,-629 12,-1267 354,-1812 752,-1199 2339,-1562 3538,-810 1108,696 1502,2106 960,3262l-453 -208c-166,-76 -352,56 -335,238l97 1041 97 1042c17,182 224,277 374,172l853 -605 853 -605c150,-106 128,-333 -38,-410z"/>
   <g>
    <path class="fil1" d="M15465 7401l1037 598c194,112 260,361 148,555l-2207 3823 244 -909 1752 -3036c45,-77 18,-177 -59,-222l-747 -431c-13,-141 -73,-275 -168,-378l0 0zm-2568 -794l96 -164c111,-195 361,-261 554,-149l1578 910 -910 -243 -790 -456c-77,-45 -177,-18 -222,59l-62 109 -244 -66z"/>
    <path class="fil2" d="M13935 7138l1156 309c216,59 346,282 287,498l-1142 4264 0 -942 907 -3385c23,-86 -28,-176 -115,-199l-833 -223c-49,-134 -142,-247 -260,-322l0 0zm-2686 -102l50 -184c58,-216 281,-345 497,-287l1759 471 -942 0 -880 -236c-86,-23 -176,28 -199,115l-33 121 -252 0z"/>
    <path class="fil1" d="M12389 7280l1197 0c224,0 406,182 406,406l0 4414 -244 -909 0 -3505c0,-90 -73,-163 -162,-163l-862 0c-83,-116 -201,-201 -335,-243l0 0zm-2621 596l0 -190c0,-224 183,-406 407,-406l1821 0 -910 243 -911 0c-90,0 -163,73 -163,163l0 125 -244 65z"/>
    <path class="fil2" d="M10108 13924c-485,-1809 -881,-3290 -1366,-5100 -23,-86 28,-176 115,-199l3295 -883c86,-23 175,29 199,115 484,1809 882,3291 1366,5100 23,86 -28,176 -115,199l-3295 883c-86,23 -175,-29 -199,-115l0 0zm-235 63c-456,-1700 -911,-3400 -1367,-5100 -58,-216 71,-439 288,-497l3295 -883c216,-58 439,71 497,287 456,1700 911,3400 1366,5100 59,216 -70,439 -286,497l-3296 883c-216,58 -439,-71 -497,-287l0 0z"/>
    <path class="fil0" d="M11577 12186l-545 146c111,-165 220,-373 247,-706 -68,152 -173,247 -358,296 -300,81 -610,-98 -691,-400 -146,-545 253,-1236 652,-1927 692,399 1383,798 1529,1343 81,301 -98,611 -399,692 -184,49 -323,19 -458,-78 190,275 389,401 567,489l-544 145z"/>
   </g>
   <g>
    <path class="fil0" d="M3828 13544l-57 -155c-54,-148 -122,-251 -204,-309 -81,-58 -173,-69 -275,-31 -104,38 -165,105 -185,201 -19,95 1,228 63,396l46 123 612 -225zm1177 -46l-1955 717 -166 -452c-57,-155 -91,-282 -102,-381 -11,-99 -6,-193 18,-281 26,-91 70,-171 132,-239 62,-69 135,-119 221,-150 192,-71 369,-55 530,47 161,103 288,280 381,532l28 76 26 71 762 -280 125 340zm-578 -1901l72 339 -2006 425 -132 -327 2066 -437zm-439 -1246l-719 48c-23,50 -39,95 -49,136 -9,40 -13,76 -11,109 8,120 58,214 151,282 92,69 211,98 356,89 127,-9 224,-48 291,-117 68,-70 98,-162 90,-276 -2,-40 -13,-83 -31,-128 -18,-44 -44,-92 -78,-143zm353 -96l-98 29c37,71 66,136 86,197 20,61 32,120 36,174 13,197 -39,361 -157,491 -118,130 -278,202 -480,216 -203,13 -378,-42 -525,-166 -147,-122 -227,-278 -239,-465 -3,-53 0,-108 9,-165 10,-57 27,-118 50,-183l-52 -307 901 -59c69,-4 136,-12 200,-24 65,-11 127,-26 188,-43l81 305zm-7 -974l-42 338 -1284 -158 39 -314 216 26c-76,-81 -130,-165 -161,-252 -31,-87 -40,-180 -28,-278 18,-145 70,-251 157,-316 87,-66 206,-90 356,-71l861 106 -42 338 -788 -97c-79,-10 -141,2 -186,36 -45,34 -73,90 -82,165 -14,113 2,203 48,270 45,66 119,106 218,118l718 89zm323 -1592l-112 322 -1222 -425 104 -299 205 72c-57,-96 -92,-189 -104,-281 -12,-92 -2,-184 30,-277 49,-139 122,-231 221,-277 99,-46 220,-44 363,5l819 285 -112 322 -750 -261c-75,-26 -138,-27 -190,-3 -51,24 -89,72 -114,144 -37,107 -40,198 -10,273 31,75 94,129 189,162l683 238zm-1112 -1980c-52,-26 -87,-66 -105,-120 -18,-54 -14,-107 12,-158 26,-51 66,-85 120,-102 55,-17 108,-13 159,13 50,26 84,65 101,119 17,53 13,105 -13,157 -26,51 -66,86 -119,103 -53,18 -105,14 -155,-12zm1752 466l-157 309 -1154 -586 103 -338 1208 615zm406 -595l-197 279 -1056 -748 183 -259 177 126c-28,-108 -36,-207 -22,-298 14,-92 50,-178 107,-258 84,-120 181,-188 289,-205 108,-16 223,19 347,106l707 502 -197 278 -648 -459c-65,-46 -125,-65 -181,-56 -56,8 -106,44 -150,106 -66,93 -94,180 -86,260 9,80 55,150 136,208l591 418zm1267 -1875l-470 -547c-53,12 -100,27 -140,45 -41,19 -77,42 -110,70 -91,79 -136,176 -135,290 1,115 49,228 144,339 83,96 172,150 268,162 96,12 188,-20 275,-94 36,-31 68,-69 96,-112 28,-44 52,-95 72,-153zm-359 972c119,-36 220,-74 303,-116 84,-42 156,-89 218,-142 81,-70 127,-144 139,-222 12,-78 -13,-152 -73,-223l-53 -62c-33,65 -67,122 -101,170 -35,49 -71,90 -108,121 -150,130 -313,186 -487,170 -175,-15 -328,-100 -461,-254 -132,-154 -193,-326 -183,-518 10,-192 87,-349 229,-472 40,-34 86,-64 137,-91 51,-27 111,-50 177,-70l213 -226 799 930c76,87 128,158 156,211 28,53 47,107 55,163 13,102 -6,206 -56,311 -50,105 -130,205 -238,298 -68,58 -140,108 -215,148 -75,40 -154,70 -235,91l-216 -217z"/>
    <path class="fil3" d="M8358 1849l151 -68c144,-65 241,-140 293,-226 53,-85 56,-178 11,-277 -45,-100 -117,-157 -214,-169 -97,-13 -227,18 -390,91l-120 55 269 594zm133 1170l-859 -1896 440 -199c149,-68 274,-112 372,-130 98,-19 191,-20 281,-2 93,19 175,56 248,113 73,57 129,127 166,210 85,186 82,363 -8,532 -91,168 -258,308 -503,419l-73 33 -69 31 335 740 -330 149zm1472 -1270c29,126 85,221 167,284 82,63 173,82 275,58 100,-23 172,-81 218,-174 45,-93 54,-202 24,-327 -29,-125 -84,-220 -166,-283 -81,-64 -172,-84 -273,-60 -101,23 -175,81 -221,174 -45,92 -53,202 -24,328zm-341 77c-47,-199 -20,-377 79,-537 99,-160 247,-263 445,-309 198,-46 376,-19 535,80 158,99 260,249 307,448 46,200 21,381 -78,539 -98,159 -246,262 -444,308 -198,46 -376,19 -536,-80 -159,-100 -262,-250 -308,-449zm3153 255l-435 13 -582 -584 18 600 -341 10 -61 -2048 340 -72 38 1311 458 -508 415 -12 -589 582 739 708zm486 -702l639 63 2 -17c12,-80 -5,-148 -51,-205 -46,-57 -111,-92 -195,-105 -93,-13 -174,3 -243,50 -69,46 -119,117 -152,214zm846 513l-79 303c-106,27 -202,44 -290,52 -87,7 -169,6 -247,-6 -201,-29 -357,-119 -469,-270 -112,-151 -153,-328 -124,-531 30,-201 120,-358 271,-471 150,-112 326,-154 526,-124 183,27 323,99 418,217 95,118 131,261 106,430 -3,22 -10,60 -21,111 -2,9 -3,14 -4,18l-40 48 -926 -102c-8,113 18,206 79,278 60,73 149,118 268,135 71,11 148,9 230,-4 83,-14 183,-42 302,-84zm1348 -200c-216,-64 -353,-89 -410,-74 -56,15 -103,81 -140,198l-204 647 -325 -102 388 -1234 302 95 -65 207c93,-59 184,-96 273,-111 89,-15 178,-9 267,19l24 7 -110 348z"/>
   </g>
  </g>
 </g>
</svg>
