<?xml version="1.0" encoding="UTF-8"?>
<!DOCTYPE svg PUBLIC "-//W3C//DTD SVG 1.1//EN" "http://www.w3.org/Graphics/SVG/1.1/DTD/svg11.dtd">
<!-- Creator: CorelDRAW X7 -->
<svg xmlns="http://www.w3.org/2000/svg" xml:space="preserve" width="31.7862mm" height="24.1188mm" version="1.1" style="shape-rendering:geometricPrecision; text-rendering:geometricPrecision; image-rendering:optimizeQuality; fill-rule:evenodd; clip-rule:evenodd"
viewBox="0 0 903 685"
 xmlns:xlink="http://www.w3.org/1999/xlink">
 <defs>
  <style type="text/css">
   <![CDATA[
    .fil2 {fill:#1A1A1A}
    .fil1 {fill:#FEC901}
    .fil0 {fill:#00678A;fill-rule:nonzero}
    .fil3 {fill:#1A1A1A;fill-rule:nonzero}
    .fil4 {fill:#FEC901;fill-rule:nonzero}
   ]]>
  </style>
 </defs>
 <g id="Camada_x0020_1">
  <metadata id="CorelCorpID_0Corel-Layer"/>
  <g id="_2821343750128">
   <path class="fil0" d="M454 580c-115,0 -208,-93 -208,-207 0,-115 93,-208 208,-208 114,0 207,93 207,208 0,114 -93,207 -207,207zm444 -331l-16 -7c29,-61 8,-136 -51,-173 -64,-40 -148,-21 -188,43 -9,15 -16,32 -19,48 -47,-37 -106,-60 -170,-60 -150,0 -272,123 -272,273 0,84 38,160 99,210 -90,0 -180,0 -270,0 -15,23 -14,38 0,65l748 0 0 24c0,10 12,17 21,11l50 -30 51 -31c9,-5 9,-18 -1,-24l-51 -28 -52 -29c-9,-5 -20,2 -20,13l0 29 -131 0c61,-50 100,-126 100,-210 0,-65 -23,-125 -61,-172 -4,-23 0,-47 13,-67 28,-44 87,-58 131,-30 41,26 55,78 35,121l-16 -8c-7,-3 -13,2 -13,9l4 38 3 39c1,7 9,10 14,6l32 -22 31 -23c6,-3 5,-12 -1,-15z"/>
   <g>
    <path class="fil1" d="M572 274l38 22c7,4 10,13 5,20l-81 141 9 -33 65 -112c1,-3 0,-7 -3,-9l-27 -15c-1,-6 -3,-11 -6,-14l0 0zm-95 -30l3 -6c4,-7 14,-10 21,-5l58 33 -34 -9 -29 -17c-3,-1 -6,0 -8,3l-2 4 -9 -3z"/>
    <path class="fil2" d="M515 264l43 11c8,2 13,11 10,19l-42 157 0 -35 34 -125c1,-3 -1,-6 -5,-7l-30 -8c-2,-5 -6,-9 -10,-12l0 0zm-99 -4l2 -7c2,-8 10,-13 18,-10l65 17 -35 0 -32 -9c-4,-1 -7,1 -8,5l-1 4 -9 0z"/>
    <path class="fil1" d="M458 269l44 0c8,0 15,7 15,15l0 163 -9 -33 0 -130c0,-3 -3,-6 -6,-6l-32 0c-3,-4 -7,-7 -12,-9l0 0zm-97 22l0 -7c0,-8 7,-15 15,-15l67 0 -33 9 -34 0c-3,0 -6,3 -6,6l0 5 -9 2z"/>
    <path class="fil2" d="M374 515c-18,-67 -33,-122 -51,-189 -1,-3 1,-6 4,-7l122 -33c3,-1 7,1 8,4 17,67 32,122 50,189 1,3 -1,6 -4,7l-122 33c-3,1 -7,-1 -7,-4l0 0zm-9 2c-17,-63 -34,-126 -51,-189 -2,-7 3,-16 11,-18l122 -33c8,-2 16,3 18,11 17,63 34,126 51,189 2,8 -3,16 -11,18l-122 33c-8,2 -16,-3 -18,-11l0 0z"/>
    <path class="fil3" d="M428 450l-20 6c4,-6 8,-14 9,-26 -3,5 -7,9 -13,11 -11,3 -23,-4 -26,-15 -5,-20 9,-46 24,-71 26,14 51,29 57,49 3,11 -4,23 -15,26 -7,2 -12,1 -17,-3 7,10 14,15 21,18l-20 5z"/>
   </g>
   <g>
    <path class="fil3" d="M142 501l-3 -6c-2,-6 -4,-9 -7,-12 -3,-2 -7,-2 -10,-1 -4,2 -6,4 -7,8 -1,3 0,8 2,14l2 5 23 -8zm43 -2l-72 26 -6 -16c-2,-6 -4,-11 -4,-14 -1,-4 0,-7 1,-11 0,-3 2,-6 4,-9 3,-2 5,-4 9,-5 7,-3 13,-2 19,2 6,3 11,10 14,19l1 3 1 3 28 -11 5 13zm-21 -70l2 12 -74 16 -5 -12 77 -16zm-17 -46l-26 1c-1,2 -2,4 -2,5 0,2 0,3 0,4 0,5 2,8 5,11 4,2 8,3 13,3 5,0 9,-2 11,-4 3,-3 4,-6 3,-10 0,-2 0,-3 -1,-5 0,-2 -1,-4 -3,-5zm13 -4l-3 1c1,3 2,5 3,7 1,3 1,5 1,7 1,7 -1,13 -5,18 -5,5 -11,7 -18,8 -8,0 -14,-2 -20,-6 -5,-5 -8,-10 -8,-17 -1,-2 0,-4 0,-6 0,-3 1,-5 2,-7l-2 -12 33 -2c3,0 5,0 8,-1 2,0 4,-1 6,-1l3 11zm0 -36l-1 13 -48 -6 2 -12 8 1c-3,-3 -5,-6 -6,-9 -1,-3 -2,-7 -1,-11 0,-5 2,-9 5,-11 4,-3 8,-4 14,-3l31 4 -1 13 -29 -4c-3,0 -5,0 -7,1 -2,2 -3,4 -3,6 -1,5 0,8 2,10 1,3 4,4 8,5l26 3zm12 -59l-4 12 -45 -16 4 -11 7 3c-2,-4 -3,-7 -4,-10 0,-4 0,-7 2,-11 1,-5 4,-8 8,-10 3,-2 8,-1 13,0l30 11 -4 12 -27 -10c-3,-1 -6,-1 -7,0 -2,1 -4,3 -5,5 -1,4 -1,8 0,10 1,3 3,5 7,6l25 9zm-41 -73c-2,-1 -3,-2 -4,-4 -1,-2 0,-4 1,-6 1,-2 2,-3 4,-4 2,-1 4,-1 6,0 2,1 3,3 4,5 0,2 0,4 -1,6 -1,2 -2,3 -4,3 -2,1 -4,1 -6,0zm65 17l-6 12 -43 -22 4 -12 45 22zm15 -22l-8 11 -39 -28 7 -10 7 5c-1,-4 -2,-8 -1,-11 1,-3 2,-7 4,-10 3,-4 7,-7 11,-7 4,-1 8,1 12,4l27 18 -8 11 -24 -17c-2,-2 -4,-3 -6,-2 -2,0 -4,1 -6,4 -2,3 -3,6 -3,9 0,3 2,6 5,8l22 15zm47 -69l-18 -20c-2,0 -3,1 -5,1 -1,1 -3,2 -4,3 -3,3 -5,6 -5,11 0,4 2,8 5,12 3,4 7,6 10,6 4,1 7,-1 10,-3 2,-1 3,-3 4,-4 1,-2 2,-4 3,-6zm-14 36c5,-1 8,-3 12,-4 3,-2 5,-4 8,-6 3,-2 4,-5 5,-8 0,-3 -1,-6 -3,-8l-2 -2c-1,2 -2,4 -4,6 -1,2 -2,3 -4,4 -5,5 -11,7 -18,7 -6,-1 -12,-4 -17,-10 -5,-5 -7,-12 -6,-19 0,-7 3,-13 8,-17 1,-2 3,-3 5,-4 2,-1 4,-2 7,-2l8 -9 29 35c3,3 5,6 6,8 1,1 2,3 2,6 0,3 0,7 -2,11 -2,4 -5,8 -9,11 -3,2 -5,4 -8,6 -3,1 -6,2 -9,3l-8 -8z"/>
    <path class="fil4" d="M309 68l6 -2c5,-3 8,-5 10,-9 2,-3 2,-6 1,-10 -2,-3 -5,-6 -8,-6 -4,0 -9,1 -15,3l-4 2 10 22zm5 44l-32 -71 16 -7c6,-2 10,-4 14,-5 4,0 7,0 11,0 3,1 6,2 9,4 2,3 4,5 6,8 3,7 3,14 -1,20 -3,6 -9,11 -18,15l-3 2 -2 1 12 27 -12 6zm54 -47c1,4 3,8 6,10 3,2 7,3 11,2 3,-1 6,-3 8,-6 1,-4 2,-8 1,-12 -2,-5 -4,-8 -7,-11 -3,-2 -6,-3 -10,-2 -3,1 -6,3 -8,7 -2,3 -2,7 -1,12zm-12 2c-2,-7 -1,-13 3,-19 3,-6 9,-10 16,-12 7,-1 14,0 20,3 6,4 9,9 11,17 2,7 1,14 -3,20 -3,6 -9,9 -16,11 -7,2 -14,1 -20,-3 -6,-4 -10,-9 -11,-17zm116 10l-16 0 -21 -21 0 22 -12 0 -3 -75 13 -3 1 48 17 -18 16 -1 -22 22 27 26zm18 -26l24 2 0 0c0,-3 0,-6 -2,-8 -2,-2 -4,-3 -7,-4 -4,0 -7,0 -9,2 -3,2 -5,4 -6,8zm31 19l-2 11c-4,1 -8,2 -11,2 -3,0 -6,0 -9,0 -8,-1 -14,-5 -18,-10 -4,-6 -5,-12 -4,-20 1,-7 4,-13 10,-17 5,-4 12,-6 19,-5 7,1 12,4 16,8 3,5 4,10 4,16 -1,1 -1,2 -1,4 0,1 0,1 0,1l-2 2 -34 -4c0,4 1,8 3,10 2,3 5,5 10,5 2,1 5,1 8,0 3,0 7,-1 11,-3zm50 -7c-8,-3 -13,-4 -15,-3 -2,0 -4,3 -5,7l-8 24 -12 -4 15 -45 11 3 -3 8c4,-2 7,-4 11,-4 3,-1 6,-1 9,0l1 1 -4 13z"/>
   </g>
  </g>
 </g>
</svg>
